<svg width="400" height="400" viewBox="0 0 400 400" fill="none" xmlns="http://www.w3.org/2000/svg">
<rect width="400" height="400" rx="102" fill="#FF4F00"/>
<path d="M256.133 187.33H154.6C154.275 187.327 153.963 187.196 153.734 186.965C153.505 186.734 153.376 186.422 153.376 186.097V162.752C153.377 162.449 153.489 162.158 153.692 161.933C153.894 161.708 154.172 161.565 154.473 161.531L266.491 149.242C267.095 149.176 267.653 148.891 268.058 148.44C268.463 147.989 268.686 147.405 268.686 146.8V125.447C268.684 125.102 268.61 124.76 268.469 124.445C268.327 124.13 268.12 123.849 267.862 123.619C267.604 123.388 267.3 123.215 266.971 123.109C266.641 123.003 266.293 122.968 265.949 123.005L154.716 135.202C154.544 135.222 154.37 135.205 154.205 135.152C154.04 135.099 153.888 135.013 153.759 134.897C153.63 134.782 153.528 134.641 153.458 134.483C153.388 134.325 153.352 134.154 153.353 133.981V99.1756C153.353 98.1462 153.763 97.159 154.493 96.4311C155.223 95.7032 156.213 95.2942 157.245 95.2942H269.379C270.031 95.2942 270.657 95.0358 271.118 94.5757C271.579 94.1157 271.838 93.4917 271.838 92.8411V71.4532C271.838 70.8026 271.579 70.1786 271.118 69.7185C270.657 69.2585 270.031 69 269.379 69H142.89C140.804 68.9985 138.738 69.407 136.81 70.2022C134.882 70.9974 133.131 72.1636 131.655 73.6343C130.179 75.105 129.009 76.8513 128.21 78.7734C127.411 80.6956 127 82.7558 127 84.8364V329.501C126.999 329.824 127.061 330.144 127.184 330.443C127.307 330.742 127.488 331.014 127.716 331.243C127.945 331.472 128.217 331.654 128.516 331.778C128.815 331.902 129.136 331.965 129.46 331.965H150.905C151.56 331.965 152.189 331.706 152.652 331.244C153.116 330.781 153.376 330.154 153.376 329.501V214.845C153.376 214.52 153.505 214.208 153.734 213.978C153.963 213.747 154.275 213.616 154.6 213.613H191.555C191.729 213.613 191.901 213.65 192.06 213.721C192.219 213.792 192.361 213.896 192.477 214.025C192.594 214.154 192.682 214.306 192.736 214.471C192.789 214.636 192.808 214.81 192.79 214.983L180.561 325.942C180.524 326.285 180.559 326.631 180.665 326.959C180.771 327.288 180.945 327.59 181.176 327.846C181.407 328.103 181.69 328.308 182.006 328.448C182.322 328.588 182.663 328.66 183.009 328.66H204.373C204.982 328.661 205.569 328.438 206.022 328.035C206.476 327.631 206.765 327.074 206.833 326.472L219.144 214.753C219.178 214.452 219.321 214.175 219.547 213.973C219.772 213.772 220.065 213.66 220.368 213.659H241.744C242.776 213.659 243.766 214.068 244.495 214.795C245.225 215.523 245.635 216.511 245.635 217.54V329.535C245.635 330.187 245.894 330.812 246.355 331.274C246.816 331.736 247.442 331.997 248.095 332H269.54C269.864 332 270.185 331.936 270.484 331.812C270.783 331.688 271.055 331.506 271.284 331.277C271.512 331.048 271.693 330.777 271.816 330.478C271.939 330.179 272.001 329.858 272 329.535V203.178C272 198.979 270.329 194.951 267.354 191.98C264.379 189.008 260.343 187.336 256.133 187.33Z" fill="white"/>
</svg>
